<?xml version="1.0" encoding="iso-8859-1"?>
<!-- Uploaded to: SVG Repo, www.svgrepo.com, Generator: SVG Repo Mixer Tools -->
<svg fill="#000000" height="800px" width="800px" version="1.1" id="Capa_1" xmlns="http://www.w3.org/2000/svg" xmlns:xlink="http://www.w3.org/1999/xlink" 
	 viewBox="0 102 322 220" xml:space="preserve">
<g>
	<path d="M269.116,275.743c6.28-10.533,10.955-21.782,13.952-33.568H295.5c12.958,0,23.5-10.542,23.5-23.5v-16
		c0-12.958-10.542-23.5-23.5-23.5h-12.432c-2.997-11.786-7.672-23.035-13.952-33.568l8.825-8.825
		c9.162-9.162,9.162-24.071-0.001-33.234l-11.313-11.313c-4.438-4.438-10.34-6.883-16.617-6.883s-12.179,2.445-16.617,6.883
		l-8.824,8.825c-10.533-6.28-21.782-10.956-33.568-13.952V74.675c0-12.958-10.542-23.5-23.5-23.5h-16
		c-12.958,0-23.5,10.542-23.5,23.5v12.432c-11.786,2.997-23.035,7.672-33.567,13.952l-8.825-8.825
		c-4.438-4.438-10.34-6.883-16.617-6.883s-12.179,2.445-16.617,6.883L41.06,103.548c-9.162,9.163-9.162,24.072,0,33.234l8.825,8.825
		c-6.28,10.533-10.955,21.782-13.952,33.568H23.5c-12.958,0-23.5,10.542-23.5,23.5v16c0,12.958,10.542,23.5,23.5,23.5h12.433
		c2.997,11.786,7.672,23.035,13.952,33.568l-8.825,8.825c-9.162,9.163-9.162,24.071,0,33.234l11.313,11.314
		c9.164,9.163,24.071,9.162,33.235,0l8.824-8.824c10.532,6.28,21.781,10.955,33.567,13.952v12.432c0,12.958,10.542,23.5,23.5,23.5
		h16c12.958,0,23.5-10.542,23.5-23.5v-12.432c11.786-2.997,23.035-7.672,33.568-13.952l8.824,8.825
		c9.163,9.163,24.072,9.164,33.233,0l11.315-11.314c9.162-9.163,9.162-24.071,0-33.234L269.116,275.743z M267.335,307.195
		l-11.315,11.314c-3.313,3.313-8.707,3.313-12.02,0l-13.054-13.054c-2.523-2.521-6.471-2.919-9.444-0.95
		c-12.128,8.031-25.415,13.552-39.494,16.41c-3.495,0.709-6.008,3.783-6.008,7.35v18.41c0,4.687-3.813,8.5-8.5,8.5h-16
		c-4.687,0-8.5-3.813-8.5-8.5v-18.41c0-3.567-2.513-6.641-6.008-7.35c-14.079-2.858-27.366-8.379-39.493-16.41
		c-1.265-0.838-2.705-1.247-4.138-1.247c-1.937,0-3.857,0.748-5.307,2.197l-13.053,13.053c-3.316,3.314-8.709,3.314-12.021,0
		l-11.313-11.314c-3.314-3.314-3.314-8.707,0-12.021l13.054-13.054c2.521-2.522,2.919-6.471,0.949-9.444
		c-8.03-12.127-13.552-25.415-16.41-39.493c-0.709-3.496-3.782-6.008-7.35-6.008H23.5c-4.687,0-8.5-3.813-8.5-8.5v-16
		c0-4.687,3.813-8.5,8.5-8.5h18.41c3.567,0,6.641-2.512,7.35-6.008c2.858-14.079,8.38-27.366,16.41-39.494
		c1.97-2.973,1.572-6.922-0.949-9.444l-13.054-13.054c-3.314-3.314-3.314-8.707,0-12.021l11.313-11.313
		c1.605-1.605,3.739-2.49,6.01-2.49s4.405,0.884,6.011,2.49l13.054,13.054c2.522,2.521,6.473,2.92,9.444,0.95
		c12.127-8.03,25.414-13.551,39.493-16.41c3.495-0.709,6.008-3.783,6.008-7.35v-18.41c0-4.687,3.813-8.5,8.5-8.5h16
		c4.687,0,8.5,3.813,8.5,8.5v18.41c0,3.567,2.513,6.641,6.008,7.35c14.079,2.858,27.366,8.379,39.494,16.41
		c2.974,1.969,6.923,1.571,9.444-0.95L244,102.841c1.605-1.605,3.739-2.49,6.01-2.49s4.404,0.884,6.011,2.49l11.313,11.313
		c3.314,3.314,3.314,8.707,0,12.021l-13.054,13.054c-2.521,2.522-2.919,6.471-0.949,9.444c8.03,12.128,13.552,25.416,16.409,39.494
		c0.71,3.496,3.783,6.008,7.351,6.008H295.5c4.687,0,8.5,3.813,8.5,8.5v16c0,4.687-3.813,8.5-8.5,8.5h-18.409
		c-3.567,0-6.641,2.512-7.351,6.008c-2.857,14.079-8.379,27.366-16.409,39.493c-1.97,2.974-1.572,6.922,0.949,9.444l13.054,13.054
		C270.648,298.488,270.648,303.881,267.335,307.195z"/>
	<path d="M159.5,147.175c-35.014,0-63.5,28.486-63.5,63.5s28.486,63.5,63.5,63.5s63.5-28.486,63.5-63.5
		S194.514,147.175,159.5,147.175z M159.5,259.175c-26.743,0-48.5-21.757-48.5-48.5s21.757-48.5,48.5-48.5s48.5,21.757,48.5,48.5
		S186.243,259.175,159.5,259.175z"/>

</g>
</svg>